<svg width="37" height="35" viewBox="0 0 37 35" fill="none" xmlns="http://www.w3.org/2000/svg">
<path fill-rule="evenodd" clip-rule="evenodd" d="M6.59531 9.23609C9.33565 5.73387 13.7239 3.46493 18.6698 3.46493C23.6448 3.46493 28.0553 5.76065 30.7924 9.29799C30.6759 9.41181 30.5698 9.52978 30.4737 9.64759C29.9724 10.2645 29.5951 11.059 29.293 11.8659C28.6844 13.4887 28.2202 15.6085 27.7904 17.5935L27.7522 17.7719C27.3234 19.7533 26.9248 21.5959 26.4428 22.9638C26.2263 23.5783 26.021 24.0128 25.8389 24.291C25.6489 24.0105 25.4334 23.5708 25.2052 22.9475C24.6898 21.5403 24.2562 19.6263 23.7967 17.5827L23.7818 17.5157C23.3401 15.5527 22.8717 13.4699 22.2876 11.8756C21.9941 11.0747 21.6341 10.2881 21.1632 9.67694C20.701 9.07718 19.9317 8.40029 18.8065 8.40029C17.6884 8.40029 16.9156 9.06983 16.4467 9.66287C15.9667 10.2701 15.5924 11.0534 15.2842 11.8547C14.6633 13.4682 14.1557 15.5789 13.6833 17.5666L13.6346 17.7719C13.1668 19.7409 12.7295 21.5818 12.2331 22.9523C12.0437 23.4757 11.8648 23.8739 11.703 24.1583C11.5448 23.8752 11.3704 23.4797 11.1861 22.9607C10.7099 21.6194 10.2928 19.8301 9.84475 17.9083L9.76631 17.5719C9.30211 15.583 8.79847 13.4685 8.16879 11.85C7.85594 11.0457 7.47327 10.2584 6.97809 9.64838C6.86595 9.5103 6.73853 9.37013 6.59531 9.23609ZM4.93678 11.9253C5.0673 12.1701 5.20537 12.4736 5.34812 12.8406C5.89318 14.2416 6.35491 16.1533 6.83041 18.1905L6.92296 18.5875C7.35588 20.4464 7.80622 22.38 8.33668 23.8739C8.61882 24.6684 8.95954 25.4466 9.39771 26.0514C9.81209 26.6235 10.5555 27.3623 11.6986 27.3623C12.8383 27.3623 13.5835 26.627 14.0007 26.0576C14.4426 25.4542 14.7889 24.6769 15.0767 23.8818C15.6285 22.3584 16.0983 20.3794 16.5479 18.4855L16.6167 18.1959C17.1011 16.1574 17.5675 14.2419 18.1086 12.8358C18.3592 12.1843 18.5939 11.7305 18.7981 11.449C18.9918 11.7281 19.213 12.1747 19.4476 12.815C19.9631 14.2222 20.3962 16.1361 20.8559 18.1798L20.871 18.2467C21.3125 20.2098 21.7809 22.2926 22.365 23.8867C22.6585 24.6879 23.0185 25.4745 23.4894 26.0855C23.9517 26.6854 24.7209 27.3623 25.8459 27.3623C26.9769 27.3623 27.7434 26.6792 28.2001 26.074C28.6639 25.4599 29.0127 24.6707 29.2944 23.8708C29.8359 22.3344 30.2664 20.3408 30.6769 18.4444L30.7357 18.169C31.1778 16.1278 31.602 14.2214 32.1259 12.8246C32.2393 12.5208 32.3511 12.2617 32.4577 12.0441C33.2604 13.7921 33.7056 15.7223 33.7056 17.7513C33.7056 25.6413 26.9741 32.0377 18.6698 32.0377C10.3656 32.0377 3.63379 25.6413 3.63379 17.7513C3.63379 15.6762 4.09941 13.7044 4.93678 11.9253ZM18.6698 0.607666C8.70481 0.607666 0.626587 8.28312 0.626587 17.7513C0.626587 27.2194 8.70481 34.8948 18.6698 34.8948C28.635 34.8948 36.7128 27.2194 36.7128 17.7513C36.7128 8.28312 28.635 0.607666 18.6698 0.607666ZM19.0136 11.2098C19.0136 11.2101 19.01 11.2128 19.003 11.2167C19.01 11.2114 19.0136 11.2095 19.0136 11.2098ZM18.5979 11.2117C18.5909 11.2077 18.5875 11.2049 18.5875 11.2045C18.5875 11.2042 18.591 11.2062 18.5979 11.2117ZM25.6173 24.5623C25.6173 24.5623 25.6205 24.5592 25.627 24.5552C25.6205 24.5605 25.6173 24.5627 25.6173 24.5623ZM26.0545 24.5508C26.0615 24.5548 26.0652 24.5574 26.0652 24.5579C26.0652 24.5583 26.0615 24.5561 26.0545 24.5508ZM11.3904 24.5879C11.3903 24.5875 11.3947 24.5835 11.4034 24.5778C11.3948 24.5853 11.3904 24.5884 11.3904 24.5879ZM11.9994 24.5804C12.008 24.5862 12.0123 24.5901 12.0123 24.5906C12.0123 24.591 12.0079 24.5884 11.9994 24.5804Z" fill="#81818B"/>
</svg>
